<svg xmlns="http://www.w3.org/2000/svg" width="6" height="10" viewBox="0 0 6 10" fill="none">
<path d="M0.518253 9.49697C0.395082 9.3738 0.333496 9.22796 0.333496 9.05946C0.333496 8.89096 0.395082 8.74529 0.518253 8.62245L4.12718 5.01352L0.505936 1.39228C0.390976 1.27732 0.333496 1.13362 0.333496 0.961182C0.333496 0.788742 0.395082 0.640937 0.518253 0.517765C0.641425 0.394594 0.78726 0.333008 0.955759 0.333008C1.12426 0.333008 1.26993 0.394594 1.39277 0.517765L5.53133 4.66864C5.5806 4.71791 5.61558 4.77129 5.63628 4.82877C5.65697 4.88625 5.66715 4.94783 5.66682 5.01352C5.66682 5.07922 5.65648 5.1408 5.63578 5.19828C5.61509 5.25576 5.58027 5.30914 5.53133 5.3584L1.38045 9.50928C1.26549 9.62424 1.12376 9.68172 0.955266 9.68172C0.786767 9.68172 0.641096 9.62014 0.518253 9.49697Z" fill="#FD4B4B"/>
</svg>