<svg width="46" height="43" viewBox="0 0 46 43" fill="none" xmlns="http://www.w3.org/2000/svg">
<path d="M33.9539 24.1613V12.7488L37.7682 9.27855L35.3923 6.58704L31.5081 10.1329L19.9444 10.131V10.1329H19.9255V13.7241H30.3627V24.1613H33.9539Z" fill="#FD4B4B"/>
<path d="M3.59121 28.9716H0V41.2044C0 42.1967 0.803297 43 1.7956 43H14.0284V39.4088H3.59121V28.9716Z" fill="#FD4B4B"/>
<path d="M35.5321 35.3394L33.9539 36.9006V29.189V28.9697H30.3627V29.189V39.4069H19.9255V42.9981H32.1583C32.1621 42.9981 32.164 42.9981 32.1678 42.9981C32.2245 42.9981 32.2793 42.9943 32.336 42.9906C32.3719 42.9868 32.4059 42.9811 32.4399 42.9754C32.4626 42.9717 32.4853 42.9698 32.508 42.966C32.5496 42.9584 32.5893 42.9471 32.629 42.9357C32.646 42.932 32.6611 42.9282 32.6781 42.9225C32.7178 42.9112 32.7575 42.8961 32.7953 42.8809C32.8104 42.8753 32.8274 42.8696 32.8425 42.8639C32.8784 42.8488 32.9144 42.8318 32.9484 42.8148C32.9654 42.8053 32.9843 42.7978 33.0013 42.7902C33.0334 42.7732 33.0656 42.7543 33.0958 42.7335C33.1147 42.7222 33.1336 42.7108 33.1525 42.6995C33.1828 42.6806 33.2092 42.6579 33.2376 42.6371C33.2565 42.6239 33.2754 42.6107 33.2943 42.5955C33.3245 42.571 33.3529 42.5445 33.3812 42.518C33.3945 42.5048 33.4096 42.4954 33.4209 42.4821L33.4285 42.4746L38.0592 37.8948L35.5321 35.3394Z" fill="#FD4B4B"/>
<path d="M41.8734 29.068L37.7681 33.1279L40.2933 35.6815L44.9297 31.0942C45.2699 30.7577 45.4627 30.2965 45.4627 29.8184V17.8048H41.8715V29.068H41.8734Z" fill="#FD4B4B"/>
<path d="M13.9548 3.59121L25.5203 3.5931V0.00188907L13.2762 0C12.8396 0 12.4162 0.158767 12.0874 0.449844L7.54541 4.46066L9.92125 7.15407L13.9548 3.59121Z" fill="#FD4B4B"/>
<path d="M45.3495 1.16431C45.0849 0.464968 44.4177 0.00378116 43.6692 0.00378116L31.425 0.00189209V3.5931H38.9212L37.6832 4.68559L40.0591 7.37899L41.8736 5.77807V13.0815H45.4648V1.79939C45.4629 1.5858 45.427 1.37033 45.3495 1.16431Z" fill="#FD4B4B"/>
<path d="M7.77972 9.0385L5.40384 6.34509L0.606718 10.577C0.355333 10.8001 0.177704 11.0817 0.081308 11.3898C0.0794179 11.3936 0.0794142 11.3992 0.0775241 11.403C0.0624032 11.4503 0.0510256 11.4994 0.0396849 11.5467C0.0377948 11.558 0.0359435 11.5694 0.0321633 11.5788C0.0227127 11.6317 0.0132382 11.6828 0.00756782 11.7357C0.00756782 11.7376 0.00756782 11.7414 0.00756782 11.7432C0.00189749 11.8 0 11.8548 0 11.9115C0 11.9152 0 11.9209 0 11.9247V24.1575H3.59121V13.7203H14.0284V13.7184H14.0397V10.1272H6.54358L7.77972 9.0385Z" fill="#FD4B4B"/>
</svg>
