<svg xmlns="http://www.w3.org/2000/svg" width="170" height="122" viewBox="0 0 192 122" fill="none">
<path d="M66.5443 21.1241H82.6061V21.1215H82.6238V15.5949L71.0879 15.5924L72.9907 13.9119L69.3341 9.76758L61.9501 16.2823C61.561 16.6259 61.2881 17.0606 61.1415 17.5331C61.139 17.5407 61.1364 17.5483 61.1364 17.5534C61.1137 17.6266 61.096 17.6999 61.0783 17.7757C61.0758 17.7934 61.0707 17.8086 61.0682 17.8263C61.053 17.9071 61.0404 17.988 61.0303 18.0689C61.0303 18.0714 61.0303 18.0765 61.0278 18.079C61.0202 18.1649 61.0151 18.2508 61.0151 18.3393C61.0151 18.3469 61.0151 18.3544 61.0151 18.3595V37.1859H66.5418V21.1241H66.5443Z" fill="url(#paint0_linear_226_1313)"/>
<path d="M113.274 37.1855V19.6226L119.145 14.283L115.488 10.1387L109.512 15.5971L91.7112 15.5945V15.5971H91.6833V21.1237H107.748V37.1855H113.274Z" fill="url(#paint1_linear_226_1313)"/>
<path d="M63.7796 66.1783H82.606V60.6517H66.5442V44.5898H61.0176V63.4162C61.0151 64.9426 62.2533 66.1783 63.7796 66.1783Z" fill="url(#paint2_linear_226_1313)"/>
<path d="M91.6832 66.1781H110.51C110.515 66.1781 110.52 66.1781 110.522 66.1781C110.608 66.1781 110.694 66.173 110.78 66.1655C110.836 66.1604 110.886 66.1503 110.942 66.1427C110.977 66.1377 111.012 66.1326 111.045 66.1276C111.108 66.1149 111.169 66.0998 111.23 66.0821C111.255 66.0745 111.28 66.0694 111.306 66.0619C111.366 66.0442 111.427 66.0214 111.485 65.9987C111.51 65.9886 111.533 65.981 111.558 65.9709C111.614 65.9481 111.669 65.9203 111.723 65.8951C111.75 65.8824 111.776 65.8698 111.803 65.8572C111.854 65.8294 111.902 65.8016 111.95 65.7712C111.978 65.7536 112.008 65.7384 112.036 65.7182C112.081 65.6879 112.124 65.655 112.167 65.6222C112.195 65.6019 112.225 65.5817 112.253 65.559C112.299 65.5211 112.344 65.4806 112.387 65.4377C112.407 65.4175 112.43 65.4023 112.45 65.3821L112.46 65.372L119.587 58.3241L115.7 54.3946L113.269 56.7978V44.9308V44.5947H107.742V44.9308V60.6565H91.6807V66.1781H91.6832Z" fill="url(#paint3_linear_226_1313)"/>
<path d="M130.17 47.8565C130.696 47.3385 130.991 46.6309 130.991 45.893V27.4053H125.465V44.7407L119.147 50.9901L123.034 54.9196L130.17 47.8565Z" fill="url(#paint4_linear_226_1313)"/>
<path d="M82.4948 5.52662L100.295 5.52914V0.00252703L81.4512 0C80.779 0 80.127 0.245122 79.6216 0.692407L72.6318 6.86594L76.2885 11.0103L82.4948 5.52662Z" fill="url(#paint5_linear_226_1313)"/>
<path d="M119.013 7.21255L122.67 11.3569L125.462 8.89303V20.1333H130.989V2.77003H130.986C130.986 2.44152 130.93 2.11047 130.809 1.79207C130.402 0.71808 129.374 0.00545672 128.224 0.00545672L109.38 0.00292969V5.52955L120.916 5.53207L119.013 7.21255Z" fill="url(#paint6_linear_226_1313)"/>
<path d="M21.0754 89.1636C21.0754 83.5132 16.5116 80.2559 11.2984 80.2559H0V111.98H4.56382V98.074H5.43312L16.5571 111.98H21.7274V111.111L10.9951 98.074C16.2084 98.074 21.0754 94.5968 21.0754 89.1636ZM4.56382 93.7275V84.6024H11.5157C14.1236 84.6024 16.5142 86.341 16.5142 89.1662C16.5142 91.9914 14.1236 93.73 11.5157 93.73H4.56382V93.7275Z" fill="url(#paint7_linear_226_1313)"/>
<path d="M38.6763 93.2934L38.4589 93.5107L38.2416 93.2934C36.9377 91.9894 34.7644 91.1201 32.5912 91.1201C26.9407 91.1201 22.1621 95.4666 22.1621 101.767C22.1621 108.066 26.9433 112.413 32.5912 112.413C34.7644 112.413 36.9377 111.544 38.2416 110.24L38.4589 110.022L38.6763 110.24L39.1109 111.978H43.0228V91.5548H39.1109L38.6763 93.2934ZM32.8085 108.504C28.6793 108.504 26.4631 105.461 26.4631 101.769C26.4631 98.0745 28.6793 95.0345 32.8085 95.0345C36.503 95.0345 39.1109 98.077 39.1109 101.769C39.1109 105.461 36.503 108.504 32.8085 108.504Z" fill="url(#paint8_linear_226_1313)"/>
<path d="M62.5769 93.2931L62.3596 93.5104L62.1422 93.2931C60.8383 91.9891 58.6221 91.1198 56.4918 91.1198C50.8414 91.1198 46.0627 95.4663 46.0627 101.766C46.0627 108.066 50.8439 112.413 56.4918 112.413C58.6651 112.413 60.8383 111.543 62.1422 110.239L62.3596 110.022L62.5769 110.239L63.0115 111.978H66.9234V78.9521H62.5769V93.2931ZM56.7091 108.503C52.58 108.503 50.3638 105.461 50.3638 101.769C50.3638 98.0742 52.58 95.0342 56.7091 95.0342C60.4036 95.0342 63.0115 98.0767 63.0115 101.769C63.0115 105.461 60.4036 108.503 56.7091 108.503Z" fill="url(#paint9_linear_226_1313)"/>
<path d="M75.5684 91.5547H71.3103V111.978H75.5684V91.5547Z" fill="url(#paint10_linear_226_1313)"/>
<path d="M75.6138 82.8643H71.2673V87.6454H75.6138V82.8643Z" fill="url(#paint11_linear_226_1313)"/>
<path d="M89.3002 91.1201C83.6498 91.1201 78.6538 95.4666 78.6538 101.767C78.6538 108.066 83.6523 112.413 89.3002 112.413C94.9506 112.413 99.9466 108.066 99.9466 101.767C99.9466 95.4666 94.9506 91.1201 89.3002 91.1201ZM89.3002 108.504C85.171 108.504 82.9978 105.461 82.9978 101.769C82.9978 98.0745 85.171 95.0345 89.3002 95.0345C93.4294 95.0345 95.6026 98.077 95.6026 101.769C95.6026 105.461 93.4294 108.504 89.3002 108.504Z" fill="url(#paint12_linear_226_1313)"/>
<path d="M107.333 78.9521H102.989V108.069L103.424 111.98H107.768L107.333 108.069V78.9521Z" fill="url(#paint13_linear_226_1313)"/>
<path d="M121.022 91.1201C115.372 91.1201 110.376 95.4666 110.376 101.767C110.376 108.066 115.374 112.413 121.022 112.413C126.673 112.413 131.668 108.066 131.668 101.767C131.668 95.4666 126.673 91.1201 121.022 91.1201ZM121.022 108.504C116.893 108.504 114.72 105.461 114.72 101.769C114.72 98.0745 116.893 95.0345 121.022 95.0345C125.151 95.0345 127.325 98.077 127.325 101.769C127.325 105.461 125.151 108.504 121.022 108.504Z" fill="url(#paint14_linear_226_1313)"/>
<path d="M147.748 93.2934L147.531 93.5107L147.313 93.2934C146.444 91.9894 144.271 91.1201 142.315 91.1201C137.316 91.1201 133.407 95.032 133.407 100.028C133.407 103.156 134.971 105.59 137.319 106.98C135.017 108.195 133.407 110.411 133.407 113.325C133.407 118.192 137.753 121.06 142.315 121.06C146.879 121.06 151.223 118.192 151.223 113.325C151.223 110.414 149.658 108.198 147.311 106.98C149.658 105.59 151.223 103.156 151.223 100.028V91.5548H148.18L147.748 93.2934ZM142.315 117.325C139.49 117.325 137.534 115.673 137.534 113.285C137.534 110.894 139.49 109.156 142.315 109.156C145.14 109.156 147.096 110.894 147.096 113.285C147.096 115.673 145.14 117.325 142.315 117.325ZM142.315 105.026C139.49 105.026 137.534 102.853 137.534 100.028C137.534 97.2027 139.49 95.0294 142.315 95.0294C145.14 95.0294 147.096 97.2027 147.096 100.028C147.096 102.853 145.14 105.026 142.315 105.026Z" fill="url(#paint15_linear_226_1313)"/>
<path d="M173.167 101.549C173.167 95.2493 168.821 91.1201 163.608 91.1201C157.957 91.1201 153.613 95.4666 153.613 101.767C153.613 108.066 158.177 112.413 163.608 112.413C167.737 112.413 170.777 110.24 172.515 107.197L168.864 105.459C168.212 107.197 166.43 108.501 163.822 108.501C160.128 108.501 157.955 105.893 157.955 102.851H172.73L173.167 101.549ZM158.177 99.0297C158.829 96.7706 160.568 95.032 163.61 95.032C166.218 95.032 168.391 96.7706 168.609 99.0297H158.177Z" fill="url(#paint16_linear_226_1313)"/>
<path d="M184.683 101.463L191.203 91.5547H186.422L182.295 97.8142L178.166 91.5547H173.385L179.905 101.463L172.95 111.981H177.731L182.295 105.069L186.856 111.981H191.638L184.683 101.463Z" fill="url(#paint17_linear_226_1313)"/>
<defs>
<linearGradient id="paint0_linear_226_1313" x1="71.8195" y1="9.76758" x2="71.8195" y2="37.1859" gradientUnits="userSpaceOnUse">
<stop stop-color="#7836FF"/>
<stop offset="1" stop-color="#8B2FA0"/>
</linearGradient>
<linearGradient id="paint1_linear_226_1313" x1="105.414" y1="10.1387" x2="105.414" y2="37.1855" gradientUnits="userSpaceOnUse">
<stop stop-color="#7836FF"/>
<stop offset="1" stop-color="#8B2FA0"/>
</linearGradient>
<linearGradient id="paint2_linear_226_1313" x1="71.8118" y1="44.5898" x2="71.8118" y2="66.1783" gradientUnits="userSpaceOnUse">
<stop stop-color="#7836FF"/>
<stop offset="1" stop-color="#8B2FA0"/>
</linearGradient>
<linearGradient id="paint3_linear_226_1313" x1="105.634" y1="44.5947" x2="105.634" y2="66.1781" gradientUnits="userSpaceOnUse">
<stop stop-color="#7836FF"/>
<stop offset="1" stop-color="#8B2FA0"/>
</linearGradient>
<linearGradient id="paint4_linear_226_1313" x1="125.069" y1="27.4053" x2="125.069" y2="54.9196" gradientUnits="userSpaceOnUse">
<stop stop-color="#7836FF"/>
<stop offset="1" stop-color="#8B2FA0"/>
</linearGradient>
<linearGradient id="paint5_linear_226_1313" x1="86.4635" y1="0" x2="86.4635" y2="11.0103" gradientUnits="userSpaceOnUse">
<stop stop-color="#7836FF"/>
<stop offset="1" stop-color="#8B2FA0"/>
</linearGradient>
<linearGradient id="paint6_linear_226_1313" x1="120.184" y1="0.00292969" x2="120.184" y2="20.1333" gradientUnits="userSpaceOnUse">
<stop stop-color="#7836FF"/>
<stop offset="1" stop-color="#8B2FA0"/>
</linearGradient>
<linearGradient id="paint7_linear_226_1313" x1="10.8637" y1="80.2559" x2="10.8637" y2="111.98" gradientUnits="userSpaceOnUse">
<stop stop-color="#7836FF"/>
<stop offset="1" stop-color="#8B2FA0"/>
</linearGradient>
<linearGradient id="paint8_linear_226_1313" x1="32.5924" y1="91.1201" x2="32.5924" y2="112.413" gradientUnits="userSpaceOnUse">
<stop stop-color="#7836FF"/>
<stop offset="1" stop-color="#8B2FA0"/>
</linearGradient>
<linearGradient id="paint9_linear_226_1313" x1="56.4931" y1="78.9521" x2="56.4931" y2="112.413" gradientUnits="userSpaceOnUse">
<stop stop-color="#7836FF"/>
<stop offset="1" stop-color="#8B2FA0"/>
</linearGradient>
<linearGradient id="paint10_linear_226_1313" x1="73.4393" y1="91.5547" x2="73.4393" y2="111.978" gradientUnits="userSpaceOnUse">
<stop stop-color="#7836FF"/>
<stop offset="1" stop-color="#8B2FA0"/>
</linearGradient>
<linearGradient id="paint11_linear_226_1313" x1="73.4406" y1="82.8643" x2="73.4406" y2="87.6454" gradientUnits="userSpaceOnUse">
<stop stop-color="#7836FF"/>
<stop offset="1" stop-color="#8B2FA0"/>
</linearGradient>
<linearGradient id="paint12_linear_226_1313" x1="89.3002" y1="91.1201" x2="89.3002" y2="112.413" gradientUnits="userSpaceOnUse">
<stop stop-color="#7836FF"/>
<stop offset="1" stop-color="#8B2FA0"/>
</linearGradient>
<linearGradient id="paint13_linear_226_1313" x1="105.378" y1="78.9521" x2="105.378" y2="111.98" gradientUnits="userSpaceOnUse">
<stop stop-color="#7836FF"/>
<stop offset="1" stop-color="#8B2FA0"/>
</linearGradient>
<linearGradient id="paint14_linear_226_1313" x1="121.022" y1="91.1201" x2="121.022" y2="112.413" gradientUnits="userSpaceOnUse">
<stop stop-color="#7836FF"/>
<stop offset="1" stop-color="#8B2FA0"/>
</linearGradient>
<linearGradient id="paint15_linear_226_1313" x1="142.315" y1="91.1201" x2="142.315" y2="121.06" gradientUnits="userSpaceOnUse">
<stop stop-color="#7836FF"/>
<stop offset="1" stop-color="#8B2FA0"/>
</linearGradient>
<linearGradient id="paint16_linear_226_1313" x1="163.39" y1="91.1201" x2="163.39" y2="112.413" gradientUnits="userSpaceOnUse">
<stop stop-color="#7836FF"/>
<stop offset="1" stop-color="#8B2FA0"/>
</linearGradient>
<linearGradient id="paint17_linear_226_1313" x1="182.294" y1="91.5547" x2="182.294" y2="111.981" gradientUnits="userSpaceOnUse">
<stop stop-color="#7836FF"/>
<stop offset="1" stop-color="#8B2FA0"/>
</linearGradient>
</defs>
</svg>