<svg xmlns="http://www.w3.org/2000/svg" width="100" height="75" viewBox="0 0 200 126" fill="none">
<path d="M69.2594 21.9859H85.9766V21.9832H85.995V16.2311L73.9884 16.2285L75.9689 14.4794L72.1631 10.166L64.4778 16.9465C64.0727 17.3042 63.7887 17.7566 63.6361 18.2484C63.6335 18.2563 63.6309 18.2642 63.6309 18.2695C63.6072 18.3458 63.5888 18.422 63.5704 18.5009C63.5678 18.5193 63.5625 18.5351 63.5599 18.5535C63.5441 18.6377 63.5309 18.7219 63.5204 18.806C63.5204 18.8087 63.5204 18.8139 63.5178 18.8166C63.5099 18.906 63.5046 18.9954 63.5046 19.0875C63.5046 19.0953 63.5046 19.1032 63.5046 19.1085V38.7031H69.2568V21.9859H69.2594Z" fill="white"/>
<path d="M117.896 38.7031V20.4237L124.006 14.8662L120.2 10.5527L113.98 16.2338L95.4533 16.2312V16.2338H95.4243V21.986H112.144V38.7031H117.896Z" fill="white"/>
<path d="M66.3823 68.8785H85.9769V63.1264H69.2597V46.4092H63.5076V66.0037C63.5049 67.5923 64.7937 68.8785 66.3823 68.8785Z" fill="white"/>
<path d="M95.424 68.8781H115.019C115.024 68.8781 115.029 68.8781 115.032 68.8781C115.121 68.8781 115.211 68.8728 115.3 68.8649C115.358 68.8597 115.41 68.8492 115.468 68.8413C115.505 68.836 115.542 68.8308 115.576 68.8255C115.642 68.8123 115.705 68.7966 115.768 68.7782C115.794 68.7703 115.821 68.765 115.847 68.7571C115.91 68.7387 115.973 68.715 116.034 68.6914C116.06 68.6808 116.084 68.673 116.11 68.6624C116.168 68.6388 116.226 68.6098 116.281 68.5835C116.31 68.5704 116.336 68.5572 116.365 68.5441C116.418 68.5151 116.468 68.4862 116.518 68.4546C116.547 68.4362 116.578 68.4205 116.607 68.3994C116.655 68.3679 116.699 68.3337 116.744 68.2995C116.773 68.2784 116.804 68.2574 116.833 68.2337C116.881 68.1943 116.928 68.1522 116.973 68.1075C116.994 68.0864 117.017 68.0707 117.039 68.0496L117.049 68.0391L124.466 60.7036L120.421 56.6138L117.891 59.115V46.7639V46.4141H112.139V46.7639V63.1312H95.4214V68.8781H95.424Z" fill="white"/>
<path d="M135.481 49.8092C136.028 49.27 136.336 48.5336 136.336 47.7656V28.5234H130.584V46.5662L124.009 53.0706L128.054 57.1604L135.481 49.8092Z" fill="white"/>
<path d="M85.8609 5.75212L104.388 5.75475V0.00263014L84.7747 0C84.075 0 83.3965 0.255124 82.8704 0.720659L75.5955 7.14609L79.4013 11.4595L85.8609 5.75212Z" fill="white"/>
<path d="M123.869 7.50672L127.675 11.8202L130.581 9.25577V20.9546H136.333V2.88293H136.33C136.33 2.54102 136.273 2.19647 136.146 1.86507C135.723 0.74726 134.652 0.00555983 133.456 0.00555983L113.843 0.00292969V5.75505L125.849 5.75768L123.869 7.50672Z" fill="white"/>
<path d="M21.9354 92.8015C21.9354 86.9205 17.1853 83.5303 11.7594 83.5303H0V116.549H4.75004V102.075H5.6548L17.2327 116.549H22.614V115.644L11.4437 102.075C16.8697 102.075 21.9354 98.4563 21.9354 92.8015ZM4.75004 97.5516V88.0541H11.9856C14.6999 88.0541 17.188 89.8637 17.188 92.8042C17.188 95.7447 14.6999 97.5542 11.9856 97.5542H4.75004V97.5516Z" fill="white"/>
<path d="M40.2544 97.0998L40.0282 97.326L39.802 97.0998C38.4448 95.7427 36.1829 94.8379 33.921 94.8379C28.04 94.8379 23.0664 99.3617 23.0664 105.919C23.0664 112.476 28.0426 116.999 33.921 116.999C36.1829 116.999 38.4448 116.095 39.802 114.738L40.0282 114.511L40.2544 114.738L40.7068 116.547H44.7782V95.2903H40.7068L40.2544 97.0998ZM34.1472 112.931C29.8495 112.931 27.5429 109.764 27.5429 105.921C27.5429 102.076 29.8495 98.912 34.1472 98.912C37.9925 98.912 40.7068 102.079 40.7068 105.921C40.7068 109.764 37.9925 112.931 34.1472 112.931Z" fill="white"/>
<path d="M65.1301 97.0999L64.9039 97.3261L64.6777 97.0999C63.3206 95.7427 61.0139 94.838 58.7967 94.838C52.9157 94.838 47.9421 99.3618 47.9421 105.919C47.9421 112.476 52.9184 117 58.7967 117C61.0587 117 63.3206 116.095 64.6777 114.738L64.9039 114.511L65.1301 114.738L65.5825 116.547H69.654V82.1738H65.1301V97.0999ZM59.0229 112.931C54.7253 112.931 52.4186 109.764 52.4186 105.921C52.4186 102.076 54.7253 98.9121 59.0229 98.9121C62.8682 98.9121 65.5825 102.079 65.5825 105.921C65.5825 109.764 62.8682 112.931 59.0229 112.931Z" fill="white"/>
<path d="M78.6518 95.29H74.22V116.547H78.6518V95.29Z" fill="white"/>
<path d="M78.6991 86.2451H74.1753V91.2213H78.6991V86.2451Z" fill="white"/>
<path d="M92.9438 94.8379C87.0628 94.8379 81.863 99.3617 81.863 105.919C81.863 112.476 87.0655 116.999 92.9438 116.999C98.8248 116.999 104.025 112.476 104.025 105.919C104.025 99.3617 98.8248 94.8379 92.9438 94.8379ZM92.9438 112.931C88.6462 112.931 86.3843 109.764 86.3843 105.921C86.3843 102.076 88.6462 98.912 92.9438 98.912C97.2415 98.912 99.5034 102.079 99.5034 105.921C99.5034 109.764 97.2415 112.931 92.9438 112.931Z" fill="white"/>
<path d="M111.712 82.1738H107.191V112.478L107.644 116.55H112.165L111.712 112.478V82.1738Z" fill="white"/>
<path d="M125.96 94.8379C120.079 94.8379 114.879 99.3617 114.879 105.919C114.879 112.476 120.082 116.999 125.96 116.999C131.841 116.999 137.041 112.476 137.041 105.919C137.041 99.3617 131.841 94.8379 125.96 94.8379ZM125.96 112.931C121.663 112.931 119.401 109.764 119.401 105.921C119.401 102.076 121.663 98.912 125.96 98.912C130.258 98.912 132.52 102.079 132.52 105.921C132.52 109.764 130.258 112.931 125.96 112.931Z" fill="white"/>
<path d="M153.776 97.0998L153.55 97.326L153.324 97.0998C152.419 95.7427 150.157 94.8379 148.122 94.8379C142.919 94.8379 138.85 98.9093 138.85 104.109C138.85 107.365 140.478 109.898 142.922 111.345C140.526 112.61 138.85 114.916 138.85 117.949C138.85 123.015 143.374 126 148.122 126C152.872 126 157.393 123.015 157.393 117.949C157.393 114.919 155.765 112.612 153.321 111.345C155.765 109.898 157.393 107.365 157.393 104.109V95.2903H154.226L153.776 97.0998ZM148.122 122.112C145.181 122.112 143.145 120.392 143.145 117.907C143.145 115.419 145.181 113.609 148.122 113.609C151.062 113.609 153.098 115.419 153.098 117.907C153.098 120.392 151.062 122.112 148.122 122.112ZM148.122 109.312C145.181 109.312 143.145 107.05 143.145 104.109C143.145 101.169 145.181 98.9067 148.122 98.9067C151.062 98.9067 153.098 101.169 153.098 104.109C153.098 107.05 151.062 109.312 148.122 109.312Z" fill="white"/>
<path d="M180.233 105.692C180.233 99.1355 175.709 94.8379 170.283 94.8379C164.402 94.8379 159.881 99.3617 159.881 105.919C159.881 112.476 164.631 116.999 170.283 116.999C174.581 116.999 177.745 114.738 179.555 111.571L175.754 109.761C175.075 111.571 173.221 112.928 170.507 112.928C166.662 112.928 164.4 110.214 164.4 107.047H179.778L180.233 105.692ZM164.631 103.07C165.31 100.719 167.119 98.9094 170.286 98.9094C173 98.9094 175.262 100.719 175.488 103.07H164.631Z" fill="white"/>
<path d="M192.219 105.603L199.005 95.29H194.028L189.733 101.805L185.436 95.29H180.459L187.245 105.603L180.007 116.549H184.983L189.733 109.356L194.481 116.549H199.457L192.219 105.603Z" fill="white"/>
</svg>