<svg width="190" height="43" viewBox="0 0 214 43" fill="none" xmlns="http://www.w3.org/2000/svg">
<path d="M75.3568 13.8054C75.3568 9.22373 71.656 6.57947 67.4259 6.57947H58.2627V32.3095H61.9635V21.0313H62.6685L71.6919 32.3095H75.8861V31.6045L67.1802 21.0313C71.4084 21.0313 75.3568 18.2112 75.3568 13.8054ZM61.9635 17.5062V10.1045H67.6036C69.7186 10.1045 71.656 11.5145 71.656 13.8054C71.656 16.0962 69.7168 17.5062 67.6036 17.5062H61.9635Z" fill="white"/>
<path d="M89.6309 17.1547L89.4551 17.3304L89.2794 17.1547C88.2228 16.0981 86.4593 15.3931 84.6977 15.3931C80.1161 15.3931 76.2395 18.9181 76.2395 24.029C76.2395 29.1398 80.1161 32.6649 84.6977 32.6649C86.4593 32.6649 88.2228 31.9599 89.2794 30.9033L89.4551 30.7275L89.6309 30.9033L89.9844 32.3133H93.156V15.7484H89.9844L89.6309 17.1547ZM84.8716 29.4895C81.5242 29.4895 79.7249 27.0229 79.7249 24.0271C79.7249 21.0313 81.5223 18.5647 84.8716 18.5647C87.8674 18.5647 89.9825 21.0313 89.9825 24.0271C89.9825 27.0229 87.8674 29.4895 84.8716 29.4895Z" fill="white"/>
<path d="M109.014 17.1546L108.838 17.3304L108.662 17.1546C107.606 16.0981 105.808 15.393 104.081 15.393C99.4992 15.393 95.6226 18.9181 95.6226 24.029C95.6226 29.1398 99.4992 32.6649 104.081 32.6649C105.842 32.6649 107.606 31.9599 108.662 30.9033L108.838 30.7275L109.014 30.9033L109.367 32.3133H112.539V5.52289H109.014V17.1546ZM104.257 29.4895C100.909 29.4895 99.1098 27.0229 99.1098 24.0271C99.1098 21.0312 100.907 18.5646 104.257 18.5646C107.252 18.5646 109.367 21.0312 109.367 24.0271C109.367 27.0229 107.252 29.4895 104.257 29.4895Z" fill="white"/>
<path d="M119.551 15.7446H116.098V32.3096H119.551V15.7446Z" fill="white"/>
<path d="M119.589 8.69647H116.064V12.5731H119.589V8.69647Z" fill="white"/>
<path d="M130.69 15.3931C126.108 15.3931 122.054 18.9181 122.054 24.029C122.054 29.1398 126.106 32.6649 130.69 32.6649C135.271 32.6649 139.326 29.1398 139.326 24.029C139.326 18.9162 135.271 15.3931 130.69 15.3931ZM130.69 29.4895C127.342 29.4895 125.579 27.0229 125.579 24.0271C125.579 21.0313 127.341 18.5647 130.69 18.5647C134.039 18.5647 135.801 21.0313 135.801 24.0271C135.801 27.0229 134.039 29.4895 130.69 29.4895Z" fill="white"/>
<path d="M145.315 5.52289H141.792V29.1379L142.144 32.3095H145.669L145.315 29.1379V5.52289Z" fill="white"/>
<path d="M156.418 15.3931C151.836 15.3931 147.782 18.9181 147.782 24.029C147.782 29.1398 151.834 32.6649 156.418 32.6649C161 32.6649 165.054 29.1398 165.054 24.029C165.054 18.9162 161 15.3931 156.418 15.3931ZM156.418 29.4895C153.07 29.4895 151.307 27.0229 151.307 24.0271C151.307 21.0313 153.069 18.5647 156.418 18.5647C159.767 18.5647 161.529 21.0313 161.529 24.0271C161.529 27.0229 159.765 29.4895 156.418 29.4895Z" fill="white"/>
<path d="M178.094 17.1547L177.918 17.3304L177.742 17.1547C177.037 16.0981 175.276 15.3931 173.69 15.3931C169.637 15.3931 166.464 18.5647 166.464 22.619C166.464 25.1574 167.732 27.1307 169.635 28.259C167.768 29.2457 166.464 31.0432 166.464 33.4039C166.464 37.3524 169.989 39.6772 173.69 39.6772C177.391 39.6772 180.916 37.3505 180.916 33.4039C180.916 31.0432 179.647 29.2457 177.744 28.259C179.647 27.1307 180.916 25.1574 180.916 22.619V15.7465H178.449L178.094 17.1547ZM173.688 36.6455C171.397 36.6455 169.811 35.3054 169.811 33.368C169.811 31.4288 171.397 30.0206 173.688 30.0206C175.979 30.0206 177.564 31.4307 177.564 33.368C177.564 35.3054 175.979 36.6455 173.688 36.6455ZM173.688 26.6714C171.397 26.6714 169.811 24.9098 169.811 22.619C169.811 20.3281 171.397 18.5666 173.688 18.5666C175.979 18.5666 177.564 20.3281 177.564 22.619C177.564 24.9098 175.979 26.6714 173.688 26.6714Z" fill="white"/>
<path d="M198.711 23.8513C198.711 18.7405 195.186 15.3931 190.958 15.3931C186.376 15.3931 182.851 18.9181 182.851 24.029C182.851 29.1398 186.552 32.6649 190.958 32.6649C194.305 32.6649 196.774 30.9033 198.184 28.4348L195.224 27.0248C194.695 28.4348 193.25 29.4914 191.135 29.4914C188.14 29.4914 186.378 27.3764 186.378 24.9098H198.361L198.711 23.8513ZM186.552 21.8062C187.081 19.9728 188.491 18.5628 190.958 18.5628C193.073 18.5628 194.834 19.9728 195.01 21.8062H186.552Z" fill="white"/>
<path d="M208.05 23.7814L213.339 15.7446H209.46L206.113 20.8196L202.764 15.7446H198.887L204.174 23.7814L198.535 32.3096H202.412L206.113 26.7054L209.814 32.3096H213.69L208.05 23.7814Z" fill="white"/>
<path d="M33.9539 24.1613V12.7488L37.7682 9.27855L35.3923 6.58704L31.5081 10.1329L19.9444 10.131V10.1329H19.9255V13.7241H30.3627V24.1613H33.9539Z" fill="white"/>
<path d="M3.59121 28.9716H0V41.2044C0 42.1967 0.803297 43 1.7956 43H14.0284V39.4088H3.59121V28.9716Z" fill="white"/>
<path d="M35.5321 35.3394L33.9539 36.9006V29.189V28.9697H30.3627V29.189V39.4069H19.9255V42.9981H32.1583C32.1621 42.9981 32.164 42.9981 32.1678 42.9981C32.2245 42.9981 32.2793 42.9943 32.336 42.9906C32.3719 42.9868 32.4059 42.9811 32.4399 42.9754C32.4626 42.9717 32.4853 42.9698 32.508 42.966C32.5496 42.9584 32.5893 42.9471 32.629 42.9357C32.646 42.932 32.6611 42.9282 32.6781 42.9225C32.7178 42.9112 32.7575 42.8961 32.7953 42.8809C32.8104 42.8753 32.8274 42.8696 32.8425 42.8639C32.8784 42.8488 32.9144 42.8318 32.9484 42.8148C32.9654 42.8053 32.9843 42.7978 33.0013 42.7902C33.0334 42.7732 33.0656 42.7543 33.0958 42.7335C33.1147 42.7222 33.1336 42.7108 33.1525 42.6995C33.1828 42.6806 33.2092 42.6579 33.2376 42.6371C33.2565 42.6239 33.2754 42.6107 33.2943 42.5955C33.3245 42.571 33.3529 42.5445 33.3812 42.518C33.3945 42.5048 33.4096 42.4954 33.4209 42.4821L33.4285 42.4746L38.0592 37.8948L35.5321 35.3394Z" fill="white"/>
<path d="M41.8734 29.068L37.7681 33.1279L40.2933 35.6815L44.9297 31.0942C45.2699 30.7577 45.4627 30.2965 45.4627 29.8184V17.8048H41.8715V29.068H41.8734Z" fill="white"/>
<path d="M13.9548 3.59121L25.5203 3.5931V0.00188907L13.2762 0C12.8396 0 12.4162 0.158767 12.0874 0.449844L7.54541 4.46066L9.92125 7.15407L13.9548 3.59121Z" fill="white"/>
<path d="M45.3495 1.16431C45.0849 0.464968 44.4177 0.00378116 43.6692 0.00378116L31.425 0.00189209V3.5931H38.9212L37.6832 4.68559L40.0591 7.37899L41.8736 5.77807V13.0815H45.4648V1.79939C45.4629 1.5858 45.427 1.37033 45.3495 1.16431Z" fill="white"/>
<path d="M7.77972 9.0385L5.40384 6.34509L0.606718 10.577C0.355333 10.8001 0.177704 11.0817 0.081308 11.3898C0.0794179 11.3936 0.0794142 11.3992 0.0775241 11.403C0.0624032 11.4503 0.0510256 11.4994 0.0396849 11.5467C0.0377948 11.558 0.0359435 11.5694 0.0321633 11.5788C0.0227127 11.6317 0.0132382 11.6828 0.00756782 11.7357C0.00756782 11.7376 0.00756782 11.7414 0.00756782 11.7432C0.00189749 11.8 0 11.8548 0 11.9115C0 11.9152 0 11.9209 0 11.9247V24.1575H3.59121V13.7203H14.0284V13.7184H14.0397V10.1272H6.54358L7.77972 9.0385Z" fill="white"/>
</svg>