<svg xmlns="http://www.w3.org/2000/svg" width="6" height="10" viewBox="0 0 6 10" fill="none">
<path d="M5.48175 9.49697C5.60492 9.3738 5.6665 9.22796 5.6665 9.05946C5.6665 8.89096 5.60492 8.74529 5.48175 8.62245L1.87282 5.01352L5.49406 1.39228C5.60902 1.27732 5.6665 1.13362 5.6665 0.961182C5.6665 0.788742 5.60492 0.640937 5.48175 0.517765C5.35858 0.394594 5.21274 0.333008 5.04424 0.333008C4.87574 0.333008 4.73007 0.394594 4.60723 0.517765L0.468667 4.66864C0.419398 4.71791 0.384418 4.77129 0.363725 4.82877C0.343032 4.88625 0.33285 4.94783 0.333178 5.01352C0.333178 5.07922 0.343524 5.1408 0.364217 5.19828C0.38491 5.25576 0.419726 5.30914 0.468667 5.3584L4.61955 9.50928C4.73451 9.62424 4.87624 9.68172 5.04473 9.68172C5.21323 9.68172 5.3589 9.62014 5.48175 9.49697Z" fill="#FD4B4B"/>
</svg>